<svg viewBox="0 0 390 844" xmlns="http://www.w3.org/2000/svg" width="390" height="844">

  <rect width="390" height="844" fill="#0d1117"/>

  <line x1="0" y1="150" x2="390" y2="150" stroke="#161b22" stroke-width="5"/>
  <line x1="0" y1="270" x2="390" y2="270" stroke="#161b22" stroke-width="5"/>
  <line x1="0" y1="390" x2="390" y2="390" stroke="#1c2333" stroke-width="10"/>
  <line x1="0" y1="490" x2="390" y2="490" stroke="#161b22" stroke-width="5"/>
  <line x1="0" y1="610" x2="390" y2="610" stroke="#161b22" stroke-width="5"/>
  <line x1="0" y1="720" x2="390" y2="720" stroke="#161b22" stroke-width="5"/>
  <line x1="80" y1="0" x2="80" y2="844" stroke="#161b22" stroke-width="5"/>
  <line x1="185" y1="0" x2="185" y2="844" stroke="#1c2333" stroke-width="10"/>
  <line x1="300" y1="0" x2="300" y2="844" stroke="#161b22" stroke-width="5"/>

  <rect x="81" y="151" width="103" height="118" fill="#0f1419"/>
  <rect x="186" y="151" width="113" height="118" fill="#0f1419"/>
  <rect x="81" y="271" width="103" height="118" fill="#0f1419"/>
  <rect x="186" y="271" width="113" height="118" fill="#101520"/>
  <rect x="301" y="151" width="89" height="118" fill="#0f1419"/>
  <rect x="0" y="271" width="79" height="118" fill="#0f1419"/>
  <rect x="301" y="271" width="89" height="118" fill="#0f1419"/>
  <rect x="0" y="491" width="79" height="118" fill="#0f1419"/>
  <rect x="81" y="491" width="103" height="118" fill="#0f1419"/>
  <rect x="186" y="491" width="113" height="118" fill="#0f1419"/>
  <rect x="301" y="491" width="89" height="118" fill="#0f1419"/>
  <rect x="0" y="611" width="79" height="108" fill="#0f1419"/>
  <rect x="81" y="611" width="103" height="108" fill="#0f1419"/>
  <rect x="186" y="611" width="113" height="108" fill="#0f1419"/>
  <rect x="301" y="611" width="89" height="108" fill="#0f1419"/>

  <path d="M-10,390 Q50,386 80,390 Q130,394 185,390 Q240,386 300,389 Q345,392 400,390" stroke="#1e6fa8" stroke-width="7" fill="none" stroke-linecap="round"/>
  <path d="M-10,390 Q50,386 80,390 Q130,394 185,390 Q240,386 300,389 Q345,392 400,390" stroke="#2d8fcf" stroke-width="2.5" fill="none" stroke-linecap="round" opacity="0.6"/>
  <path d="M0,270 Q40,300 80,390 Q100,445 80,560" stroke="#1a5f94" stroke-width="5" fill="none" stroke-linecap="round"/>
  <path d="M0,270 Q40,300 80,390 Q100,445 80,560" stroke="#2880bb" stroke-width="2" fill="none" stroke-linecap="round" opacity="0.5"/>
  <path d="M300,80 Q297,185 300,390 Q303,540 300,720" stroke="#1a5f94" stroke-width="5" fill="none" stroke-linecap="round"/>
  <path d="M300,80 Q297,185 300,390 Q303,540 300,720" stroke="#2880bb" stroke-width="2" fill="none" stroke-linecap="round" opacity="0.5"/>
  <path d="M185,390 Q210,360 255,315 Q280,285 300,255" stroke="#1a5f94" stroke-width="3.5" fill="none" stroke-linecap="round"/>

  <ellipse cx="48" cy="490" rx="28" ry="19" fill="#0e3d5c"/>
  <ellipse cx="48" cy="490" rx="24" ry="16" fill="#11527a"/>
  <ellipse cx="338" cy="540" rx="25" ry="18" fill="#0e3d5c"/>
  <ellipse cx="338" cy="540" rx="21" ry="15" fill="#11527a"/>
  <ellipse cx="238" cy="225" rx="20" ry="13" fill="#0e3d5c"/>
  <ellipse cx="238" cy="225" rx="17" ry="11" fill="#11527a"/>
  <rect x="168" y="645" width="78" height="48" rx="8" fill="#0e3d5c"/>
  <rect x="172" y="649" width="70" height="40" rx="6" fill="#11527a"/>

  <path d="M-10,381 Q50,377 80,382 Q130,386 185,382 L185,398 Q130,402 80,398 Q50,394 -10,399 Z" fill="#1D9E75" opacity="0.55"/>
  <path d="M-10,381 Q50,377 80,382 Q130,386 185,382 L185,383 Q130,387 80,383 Q50,378 -10,382 Z" fill="#5DCAA5" opacity="0.9"/>
  <path d="M185,381 Q240,377 300,380 Q345,383 400,381 L400,399 Q345,401 300,398 Q240,397 185,398 Z" fill="#7F77DD" opacity="0.50"/>
  <path d="M185,381 Q240,377 300,380 Q345,383 400,381 L400,382 Q345,384 300,381 Q240,378 185,382 Z" fill="#AFA9EC" opacity="0.9"/>
  <ellipse cx="48" cy="490" rx="36" ry="26" fill="#D85A30" opacity="0.45"/>
  <ellipse cx="48" cy="490" rx="36" ry="4" fill="#F0997B" opacity="0.8" transform="translate(0,-22)"/>
  <ellipse cx="338" cy="540" rx="32" ry="24" fill="#BA7517" opacity="0.50"/>
  <ellipse cx="338" cy="540" rx="32" ry="4" fill="#EF9F27" opacity="0.8" transform="translate(0,-20)"/>
  <ellipse cx="238" cy="225" rx="27" ry="18" fill="#378ADD" opacity="0.50"/>
  <ellipse cx="238" cy="225" rx="27" ry="3" fill="#85B7EB" opacity="0.8" transform="translate(0,-15)"/>
  <path d="M0,262 Q44,295 84,382 Q106,440 84,552 L76,552 Q56,438 76,388 Q36,303 0,276 Z" fill="#D4537E" opacity="0.45"/>
  <rect x="160" y="638" width="94" height="62" rx="10" fill="#2d3748" opacity="0.6"/>

  <path d="M-10,381 Q50,377 80,382 Q130,386 185,382 L185,398 Q130,402 80,398 Q50,394 -10,399 Z" fill="none" stroke="#1D9E75" stroke-width="1.2" opacity="0.8"/>
  <path d="M185,381 Q240,377 300,380 Q345,383 400,381 L400,399 Q345,401 300,398 Q240,397 185,398 Z" fill="none" stroke="#7F77DD" stroke-width="1.2" opacity="0.8"/>
  <ellipse cx="48" cy="490" rx="36" ry="26" fill="none" stroke="#D85A30" stroke-width="1.2" opacity="0.8"/>
  <ellipse cx="338" cy="540" rx="32" ry="24" fill="none" stroke="#BA7517" stroke-width="1.2" opacity="0.8"/>
  <ellipse cx="238" cy="225" rx="27" ry="18" fill="none" stroke="#378ADD" stroke-width="1.2" opacity="0.8"/>
  <path d="M0,262 Q44,295 84,382 Q106,440 84,552 L76,552 Q56,438 76,388 Q36,303 0,276 Z" fill="none" stroke="#D4537E" stroke-width="1.2" opacity="0.8"/>
  <rect x="160" y="638" width="94" height="62" rx="10" fill="none" stroke="#4b5563" stroke-width="1" opacity="0.6"/>

  <rect x="8" y="376" width="78" height="17" rx="8.5" fill="#085041"/>
  <text x="47" y="388.5" font-family="system-ui,sans-serif" font-size="9.5" font-weight="700" fill="#9FE1CB" text-anchor="middle">@reel_junkie</text>
  <rect x="218" y="376" width="66" height="17" rx="8.5" fill="#26215C"/>
  <text x="251" y="388.5" font-family="system-ui,sans-serif" font-size="9.5" font-weight="700" fill="#CECBF6" text-anchor="middle">@desertrod</text>
  <rect x="14" y="480" width="68" height="17" rx="8.5" fill="#4A1B0C"/>
  <text x="48" y="492.5" font-family="system-ui,sans-serif" font-size="9.5" font-weight="700" fill="#F5C4B3" text-anchor="middle">@azbassman</text>
  <rect x="305" y="531" width="66" height="17" rx="8.5" fill="#412402"/>
  <text x="338" y="543.5" font-family="system-ui,sans-serif" font-size="9.5" font-weight="700" fill="#FAC775" text-anchor="middle">@sunfish_az</text>
  <rect x="210" y="215" width="57" height="17" rx="8.5" fill="#042C53"/>
  <text x="238" y="227.5" font-family="system-ui,sans-serif" font-size="9.5" font-weight="700" fill="#B5D4F4" text-anchor="middle">@phxcaster</text>
  <rect x="1" y="311" width="77" height="17" rx="8.5" fill="#4B1528"/>
  <text x="39" y="323.5" font-family="system-ui,sans-serif" font-size="9.5" font-weight="700" fill="#F4C0D1" text-anchor="middle">@canal_queen</text>
  <rect x="177" y="661" width="52" height="17" rx="8.5" fill="#1f2937"/>
  <text x="203" y="673.5" font-family="system-ui,sans-serif" font-size="9.5" font-weight="600" fill="#6b7280" text-anchor="middle">unclaimed</text>

  <circle cx="185" cy="390" r="26" fill="#1D9E75" opacity="0.12"/>
  <circle cx="185" cy="390" r="18" fill="#1D9E75" opacity="0.22"/>
  <circle cx="185" cy="390" r="11" fill="#0d1117"/>
  <circle cx="185" cy="390" r="11" fill="#1D9E75" opacity="0.9"/>
  <circle cx="185" cy="390" r="4" fill="white"/>

  <rect x="0" y="0" width="390" height="52" fill="#0d1117"/>
  <text x="24" y="21" font-family="system-ui,sans-serif" font-size="15" font-weight="600" fill="white">9:41</text>
  <rect x="330" y="11" width="40" height="14" rx="3" fill="none" stroke="#ffffff" stroke-width="1.4" opacity="0.5"/>
  <rect x="333" y="14" width="28" height="8" rx="1.5" fill="white" opacity="0.5"/>
  <rect x="372" y="14" width="3" height="6" rx="1" fill="white" opacity="0.4"/>
  <rect x="295" y="19" width="3" height="7" rx="1" fill="white" opacity="0.5"/>
  <rect x="302" y="16" width="3" height="10" rx="1" fill="white" opacity="0.5"/>
  <rect x="309" y="13" width="3" height="13" rx="1" fill="white" opacity="0.5"/>
  <rect x="137" y="9" width="116" height="34" rx="20" fill="#000"/>

  <rect x="12" y="58" width="366" height="46" rx="23" fill="#161b22" opacity="0.95"/>
  <line x1="26" y1="74" x2="46" y2="74" stroke="white" stroke-width="2" stroke-linecap="round"/>
  <line x1="26" y1="81" x2="46" y2="81" stroke="white" stroke-width="2" stroke-linecap="round"/>
  <text x="58" y="86" font-family="system-ui,sans-serif" font-size="14" font-weight="700" fill="white">StackedFins</text>
  <rect x="166" y="68" width="74" height="24" rx="12" fill="#1D9E75" opacity="0.9"/>
  <text x="203" y="84" font-family="system-ui,sans-serif" font-size="10" font-weight="700" fill="#E1F5EE" text-anchor="middle">territory</text>
  <circle cx="316" cy="81" r="9" fill="none" stroke="white" stroke-width="1.6" opacity="0.7"/>
  <line x1="323" y1="88" x2="330" y2="95" stroke="white" stroke-width="2" stroke-linecap="round" opacity="0.7"/>
  <circle cx="356" cy="81" r="9" fill="none" stroke="white" stroke-width="1.6" opacity="0.7"/>
  <circle cx="356" cy="77.5" r="3" fill="white" opacity="0.7"/>
  <path d="M349,91 Q349,86 356,86 Q363,86 363,91" fill="white" opacity="0.7"/>

  <rect x="344" y="395" width="38" height="80" rx="19" fill="#161b22" opacity="0.92"/>
  <text x="363" y="424" font-family="system-ui,sans-serif" font-size="22" fill="white" text-anchor="middle">+</text>
  <line x1="352" y1="435" x2="374" y2="435" stroke="#374151" stroke-width="1"/>
  <text x="363" y="463" font-family="system-ui,sans-serif" font-size="22" fill="white" text-anchor="middle">&#8722;</text>
  <circle cx="363" cy="508" r="20" fill="#161b22" opacity="0.92"/>
  <circle cx="363" cy="508" r="7" fill="none" stroke="white" stroke-width="1.8" opacity="0.8"/>
  <circle cx="363" cy="508" r="2.2" fill="white" opacity="0.8"/>
  <line x1="363" y1="496" x2="363" y2="499" stroke="white" stroke-width="1.8" opacity="0.8"/>
  <line x1="363" y1="517" x2="363" y2="520" stroke="white" stroke-width="1.8" opacity="0.8"/>
  <line x1="351" y1="508" x2="354" y2="508" stroke="white" stroke-width="1.8" opacity="0.8"/>
  <line x1="372" y1="508" x2="375" y2="508" stroke="white" stroke-width="1.8" opacity="0.8"/>

  <rect x="0" y="716" width="390" height="128" fill="#0d1117"/>
  <line x1="0" y1="716" x2="390" y2="716" stroke="#1f2937" stroke-width="1"/>
  <rect x="172" y="724" width="46" height="4" rx="2" fill="#374151"/>
  <text x="24" y="756" font-family="system-ui,sans-serif" font-size="14" font-weight="700" fill="white">Arizona Canal West</text>
  <rect x="24" y="764" width="88" height="20" rx="10" fill="#085041"/>
  <text x="68" y="778" font-family="system-ui,sans-serif" font-size="10" font-weight="700" fill="#9FE1CB" text-anchor="middle">@reel_junkie</text>
  <text x="122" y="778" font-family="system-ui,sans-serif" font-size="11" fill="#6b7280">holds this zone</text>
  <rect x="16" y="792" width="358" height="44" rx="22" fill="#1D9E75"/>
  <text x="195" y="819" font-family="system-ui,sans-serif" font-size="14" font-weight="700" fill="white" text-anchor="middle">Log a catch here</text>
  <rect x="130" y="846" width="130" height="4" rx="2" fill="#374151"/>

</svg>
